<svg width="19" height="18" viewBox="0 0 19 18" fill="none" xmlns="http://www.w3.org/2000/svg">
<rect width="19" height="18" rx="9" fill="white"/>
<path d="M14.6346 12.217C14.6357 12.4195 14.5914 12.6199 14.5045 12.8049C14.4177 12.9899 14.2904 13.1553 14.131 13.2902C13.9715 13.425 13.7837 13.5262 13.5799 13.5871C13.376 13.648 13.1609 13.6671 12.9486 13.6433C12.176 13.5349 11.6099 12.8981 11.6288 12.1584V3.65456C11.6101 2.91412 12.1776 2.27687 12.9512 2.16974C13.1632 2.14622 13.3781 2.16562 13.5816 2.22666C13.7852 2.28769 13.9727 2.38896 14.1318 2.52378C14.291 2.6586 14.4181 2.82389 14.5047 3.00872C14.5914 3.19355 14.6357 3.39371 14.6346 3.59595V12.217Z" fill="#F9AB00"/>
<path d="M5.17626 10.8078C6.0063 10.8078 6.67917 11.4453 6.67917 12.2316C6.67917 13.018 6.0063 13.6555 5.17626 13.6555C4.34621 13.6555 3.67334 13.018 3.67334 12.2317C3.67334 11.4453 4.34621 10.8078 5.17626 10.8078ZM9.13074 6.49241C8.29679 6.53573 7.6497 7.19845 7.6691 7.98952V11.814C7.6691 12.852 8.15117 13.4821 8.85748 13.6164C9.07646 13.6584 9.30257 13.6538 9.51941 13.6028C9.73626 13.5518 9.9384 13.4557 10.1112 13.3214C10.2839 13.1872 10.423 13.0183 10.5183 12.8268C10.6136 12.6353 10.6627 12.4262 10.662 12.2145V7.92361C10.6624 7.73391 10.6229 7.54605 10.5458 7.37098C10.4687 7.19591 10.3556 7.03713 10.2131 6.90391C10.0705 6.77069 9.90142 6.6657 9.71559 6.59505C9.52976 6.52441 9.33095 6.48953 9.13074 6.49245V6.49241Z" fill="#E37400"/>
</svg>
